<?xml version="1.0" standalone="no"?>
<!DOCTYPE svg PUBLIC "-//W3C//DTD SVG 20010904//EN"
 "http://www.w3.org/TR/2001/REC-SVG-20010904/DTD/svg10.dtd">
<svg version="1.0" xmlns="http://www.w3.org/2000/svg"
 width="300.000000pt" height="300.000000pt" viewBox="0 0 300.000000 300.000000"
 preserveAspectRatio="xMidYMid meet">
<metadata>
Created by potrace 1.14, written by Peter Selinger 2001-2017
</metadata>
<g transform="translate(0.000000,300.000000) scale(0.100000,-0.100000)"
fill="#000000" stroke="none">
<path d="M1723 2843 c9 -2 23 -2 30 0 6 3 -1 5 -18 5 -16 0 -22 -2 -12 -5z"/>
<path d="M1780 2833 c8 -2 24 -8 35 -13 11 -5 34 -13 50 -19 28 -10 27 -10
-10 -4 -36 6 -39 5 -26 -10 12 -15 11 -17 -3 -17 -17 0 -18 -20 -1 -32 6 -5
-12 -6 -40 -3 -46 5 -44 4 25 -15 250 -70 480 -206 641 -378 62 -67 157 -192
146 -192 -2 0 -27 31 -55 68 -146 196 -384 367 -622 446 -172 57 -258 69 -460
63 -153 -4 -190 -8 -292 -35 -261 -68 -537 -248 -691 -449 -21 -29 -41 -53
-44 -53 -7 0 8 21 59 87 164 209 459 390 731 450 l38 8 -38 12 c-34 10 -36 10
-19 -3 18 -13 16 -14 -25 -13 -34 0 -39 2 -24 9 17 7 17 9 3 9 -10 1 -18 5
-18 10 0 5 -7 17 -15 25 -14 14 -11 17 32 28 26 7 40 14 31 16 -9 2 -58 -11
-110 -28 -458 -153 -795 -551 -873 -1030 -20 -126 -20 -403 1 -541 43 -294
204 -584 432 -783 255 -222 543 -326 897 -326 165 0 411 65 575 152 291 153
535 440 635 748 47 143 57 211 62 426 8 313 -24 480 -133 697 -71 141 -129
222 -244 338 -110 112 -211 184 -355 257 -81 40 -261 103 -293 101 -13 0 -14
-2 -2 -6z m-106 -311 c179 -96 252 -323 162 -507 -16 -34 -20 -51 -12 -54 6
-2 24 -17 40 -33 17 -15 33 -28 36 -28 4 0 25 17 46 37 21 20 68 50 104 67 54
25 77 30 145 30 113 1 189 -29 265 -103 66 -65 97 -126 113 -216 13 -74 -1
-161 -35 -228 -31 -62 -107 -136 -173 -170 -55 -29 -68 -31 -162 -32 -99 0
-103 -1 -103 -22 0 -12 -4 -24 -9 -27 -5 -3 -11 -17 -14 -31 -4 -23 2 -29 53
-55 101 -51 172 -152 193 -275 28 -164 -63 -330 -221 -403 -48 -22 -71 -27
-147 -27 -81 0 -97 3 -157 32 -115 54 -188 149 -211 274 l-12 61 -65 -4 c-69
-3 -78 -10 -79 -59 -1 -42 -68 -164 -111 -203 -52 -47 -122 -82 -196 -96 -155
-31 -328 59 -401 209 -25 50 -28 67 -28 161 0 96 3 110 29 164 36 73 97 136
164 170 l50 25 -11 36 c-5 19 -14 35 -19 35 -4 0 -8 8 -8 18 0 15 -11 17 -97
17 -85 0 -106 4 -155 27 -296 138 -302 547 -9 691 58 28 75 32 151 32 108 0
168 -20 248 -85 l62 -50 31 29 c17 17 35 31 40 33 5 2 -4 32 -18 68 -23 55
-28 79 -27 155 0 110 23 177 88 251 111 126 314 165 460 86z m-1280 -392 c-10
-16 -20 -28 -22 -26 -4 5 28 56 35 56 2 0 -4 -13 -13 -30z m2250 -46 c3 -8 2
-12 -4 -9 -6 3 -10 10 -10 16 0 14 7 11 14 -7z m-2281 -9 c-3 -9 -8 -14 -10
-11 -3 3 -2 9 2 15 9 16 15 13 8 -4z"/>
<path d="M1430 2521 c-104 -22 -211 -115 -249 -216 -23 -62 -28 -156 -10 -219
24 -86 96 -168 189 -214 47 -23 67 -27 140 -26 100 0 152 21 229 90 85 77 130
217 102 322 l-12 42 -59 -52 c-52 -45 -60 -58 -66 -97 -4 -25 -16 -62 -28 -83
-17 -30 -31 -40 -89 -59 -38 -13 -65 -25 -59 -27 5 -1 36 6 68 16 71 23 109
69 119 147 6 44 12 54 48 82 29 22 44 28 49 20 12 -19 9 -81 -7 -143 -8 -31
-12 -61 -8 -67 3 -6 1 -7 -5 -3 -6 4 -16 -4 -22 -16 -18 -36 -90 -98 -139
-120 -63 -29 -179 -29 -243 -1 -62 28 -128 90 -158 150 -21 41 -25 62 -25 138
0 65 5 99 18 124 9 19 17 40 17 48 0 8 5 11 10 8 6 -3 10 -2 10 4 0 29 97 94
174 116 61 18 123 13 186 -13 l35 -14 -44 -38 c-38 -33 -51 -38 -109 -43 -84
-7 -158 -33 -177 -60 -21 -30 -21 -180 0 -197 8 -7 15 -21 15 -31 0 -10 10
-24 23 -30 12 -7 28 -20 35 -31 8 -11 25 -18 44 -18 23 0 28 3 20 13 -5 6 -12
21 -16 32 -3 12 -4 9 -2 -7 2 -17 -2 -28 -9 -28 -22 0 -85 65 -85 88 0 12 -5
21 -12 19 -16 -3 -20 147 -5 181 12 26 75 47 170 58 74 8 88 15 145 68 l43 40
-44 23 c-49 24 -150 36 -207 24z"/>
<path d="M1382 2100 c0 -14 2 -19 5 -12 2 6 2 18 0 25 -3 6 -5 1 -5 -13z"/>
<path d="M1592 2100 c0 -14 2 -19 5 -12 2 6 2 18 0 25 -3 6 -5 1 -5 -13z"/>
<path d="M1498 2003 c7 -3 16 -2 19 1 4 3 -2 6 -13 5 -11 0 -14 -3 -6 -6z"/>
<path d="M667 1976 c-231 -95 -287 -390 -109 -564 46 -44 85 -69 134 -83 28
-7 28 -7 28 34 0 61 -43 131 -132 215 -67 63 -38 83 52 37 82 -42 80 -44 80
115 0 136 1 140 21 140 12 0 28 8 35 18 22 30 38 -2 49 -100 6 -50 15 -93 21
-95 6 -2 22 33 36 79 22 75 27 83 49 83 20 0 24 -5 22 -27 -1 -18 4 -28 16
-31 17 -4 17 -10 -5 -118 -13 -63 -24 -126 -24 -140 0 -14 -11 -48 -25 -75
-15 -30 -25 -66 -25 -92 0 -40 2 -43 23 -36 45 13 80 37 124 80 168 169 117
450 -102 555 -80 39 -181 40 -268 5z m188 -20 c97 -14 167 -69 214 -166 22
-46 26 -69 25 -135 0 -57 -5 -90 -18 -115 -31 -58 -86 -119 -127 -140 l-39
-20 0 22 c0 12 6 29 14 37 17 19 28 61 56 225 19 107 19 120 5 136 -8 9 -15
23 -15 31 0 9 -6 24 -14 34 -24 33 -58 7 -79 -57 -9 -30 -17 -63 -17 -73 0
-36 -9 -8 -20 60 -19 131 -21 132 -98 95 l-42 -20 -1 -123 c0 -77 -4 -115 -9
-102 -5 11 -10 34 -11 50 -2 23 -3 20 -8 -15 -5 -41 -4 -46 18 -56 13 -6 20
-13 15 -16 -12 -7 -88 42 -79 50 4 4 10 1 12 -5 8 -22 23 -14 23 10 0 15 -9
28 -22 35 -21 10 -22 11 -3 11 17 1 20 8 20 55 0 30 -3 49 -7 43 -4 -7 -8 -29
-8 -49 0 -21 -4 -38 -10 -38 -14 0 -12 84 2 98 10 10 6 10 -18 2 -17 -6 -35
-10 -40 -9 -23 4 -32 -4 -43 -42 -7 -23 -14 -39 -17 -36 -9 9 33 102 44 100 7
-2 12 3 12 11 0 17 46 64 82 82 39 20 129 43 153 38 11 -2 34 -5 50 -8z m-229
-272 c17 -14 17 -15 1 -10 -10 3 -23 6 -28 6 -5 0 -9 5 -9 10 0 14 13 12 36
-6z m-76 -18 c0 -3 -4 -8 -10 -11 -5 -3 -10 -1 -10 4 0 6 5 11 10 11 6 0 10
-2 10 -4z m25 -96 c3 -6 -1 -7 -9 -4 -18 7 -21 14 -7 14 6 0 13 -4 16 -10z
m115 -151 c0 -4 -8 -13 -17 -20 -16 -13 -17 -12 -5 3 11 14 11 21 -4 45 l-16
28 21 -25 c11 -14 21 -28 21 -31z"/>
<path d="M625 1890 c-3 -6 1 -7 9 -4 18 7 21 14 7 14 -6 0 -13 -4 -16 -10z"/>
<path d="M630 1860 c0 -5 5 -10 11 -10 5 0 7 5 4 10 -3 6 -8 10 -11 10 -2 0
-4 -4 -4 -10z"/>
<path d="M590 1845 c-8 -9 -8 -15 -2 -15 12 0 26 19 19 26 -2 2 -10 -2 -17
-11z"/>
<path d="M671 1814 c0 -11 3 -14 6 -6 3 7 2 16 -1 19 -3 4 -6 -2 -5 -13z"/>
<path d="M972 1444 c-7 -8 -8 -14 -3 -14 10 0 25 19 20 25 -2 1 -10 -3 -17
-11z"/>
<path d="M930 1425 c-7 -9 -10 -18 -7 -21 3 -3 10 4 17 15 13 25 8 27 -10 6z"/>
<path d="M2095 1982 c-61 -23 -95 -43 -95 -57 0 -19 67 -56 161 -87 112 -37
264 -132 264 -166 0 -11 3 -24 8 -28 13 -14 7 -34 -10 -34 -17 -1 -17 -1 0
-11 42 -25 -7 -63 -51 -40 -31 17 -37 13 -12 -7 13 -11 20 -24 16 -30 -14 -24
-66 -11 -162 40 l-99 51 38 -42 c37 -41 46 -80 21 -88 -6 -2 -35 17 -65 42
-29 25 -56 45 -60 45 -4 0 -21 29 -39 65 -24 48 -44 73 -77 95 -24 17 -48 30
-53 30 -5 0 -12 -21 -16 -46 -23 -153 59 -305 201 -371 50 -23 73 -28 140 -28
71 0 89 4 148 33 75 37 124 89 164 172 22 45 27 69 27 136 0 72 -4 89 -32 147
-37 74 -102 138 -172 170 -65 28 -181 33 -245 9z m224 -48 c34 -15 61 -31 61
-35 0 -5 6 -9 13 -9 6 0 25 -18 40 -40 17 -24 23 -40 16 -40 -10 0 -10 -3 -1
-12 7 -7 12 -16 12 -22 0 -5 -6 -1 -14 9 -8 11 -12 24 -10 30 3 6 -3 19 -13
27 -17 16 -18 15 -20 -15 -2 -24 0 -28 7 -17 6 9 10 10 10 3 0 -7 -7 -16 -16
-21 -14 -8 -11 -14 15 -43 17 -18 31 -38 30 -44 0 -5 -7 0 -16 13 -8 12 -21
22 -28 22 -6 0 -41 19 -76 41 -35 23 -109 57 -164 76 -55 18 -106 40 -114 48
-15 15 -8 20 69 48 43 16 141 6 199 -19z m181 -243 c0 -32 -6 -24 -14 19 -4
25 -3 31 4 20 5 -8 10 -26 10 -39z m-505 -67 c13 -31 39 -64 64 -84 22 -18 38
-37 34 -43 -4 -6 -1 -7 6 -2 8 4 24 -4 41 -20 17 -16 35 -25 44 -22 22 9 31
54 17 85 l-11 27 23 -25 c13 -14 30 -26 37 -28 8 -2 21 -7 28 -11 12 -7 11 -9
-2 -14 -10 -4 -15 -3 -12 2 3 5 -5 9 -19 9 -17 0 -25 -7 -27 -21 -2 -12 -13
-27 -25 -33 -13 -6 -20 -13 -17 -16 3 -3 1 -9 -5 -13 -6 -3 -11 2 -11 13 0 11
-8 22 -17 26 -10 3 -24 9 -31 12 -8 4 -10 0 -6 -10 4 -11 1 -16 -11 -16 -14 0
-15 -3 -5 -15 8 -9 8 -15 2 -15 -6 0 -12 -7 -14 -16 -2 -13 -14 -8 -56 25 -54
43 -91 92 -110 150 -13 37 -16 143 -5 154 12 13 64 -47 88 -99z m475 11 c0 -5
-5 -3 -10 5 -5 8 -10 20 -10 25 0 6 5 3 10 -5 5 -8 10 -19 10 -25z m-60 -129
c0 -3 -4 -8 -10 -11 -5 -3 -10 -1 -10 4 0 6 5 11 10 11 6 0 10 -2 10 -4z m-83
-22 c-3 -3 -12 -4 -19 -1 -8 3 -5 6 6 6 11 1 17 -2 13 -5z m-177 -53 c0 -5 -6
-12 -12 -15 -9 -3 -7 -9 6 -20 11 -9 15 -16 9 -16 -7 0 -14 4 -17 9 -3 5 -16
7 -27 4 -21 -6 -20 -5 2 19 25 27 39 34 39 19z m200 -35 c0 -2 -7 -7 -16 -10
-8 -3 -12 -2 -9 4 6 10 25 14 25 6z m-227 -23 c-7 -2 -19 -2 -25 0 -7 3 -2 5
12 5 14 0 19 -2 13 -5z m174 1 c-3 -3 -12 -4 -19 -1 -8 3 -5 6 6 6 11 1 17 -2
13 -5z m-69 -11 c-15 -2 -42 -2 -60 0 -18 2 -6 4 27 4 33 0 48 -2 33 -4z"/>
<path d="M2338 1893 c7 -3 16 -2 19 1 4 3 -2 6 -13 5 -11 0 -14 -3 -6 -6z"/>
<path d="M2275 1840 c3 -5 8 -10 11 -10 2 0 4 5 4 10 0 6 -5 10 -11 10 -5 0
-7 -4 -4 -10z"/>
<path d="M2362 1773 c38 -27 39 -28 32 -8 -4 8 -11 15 -18 15 -7 0 -6 3 2 8 8
6 2 9 -17 9 l-30 0 31 -24z"/>
<path d="M2070 1481 c0 -6 4 -13 10 -16 6 -3 7 1 4 9 -7 18 -14 21 -14 7z"/>
<path d="M1986 1467 c3 -10 9 -15 12 -12 3 3 0 11 -7 18 -10 9 -11 8 -5 -6z"/>
<path d="M2045 1440 c3 -5 11 -10 16 -10 6 0 7 5 4 10 -3 6 -11 10 -16 10 -6
0 -7 -4 -4 -10z"/>
<path d="M1186 1935 c-3 -8 -11 -15 -18 -15 -7 -1 -24 -9 -36 -20 l-24 -20 28
-56 c15 -30 29 -77 32 -102 l4 -47 73 -3 73 -3 26 77 c14 43 25 78 23 79 -52
22 -81 41 -123 79 -40 35 -53 42 -58 31z"/>
<path d="M1755 1903 c-22 -19 -58 -44 -80 -55 -22 -11 -41 -22 -43 -23 -1 -1
8 -36 21 -76 l24 -74 75 -3 75 -3 6 51 c4 29 17 76 31 106 l25 54 -30 20 c-16
12 -29 18 -29 14 0 -4 -8 0 -17 9 -17 14 -21 12 -58 -20z"/>
<path d="M1385 1806 c-2 -6 -12 -39 -24 -73 l-20 -63 155 0 c85 0 154 4 154 9
0 5 -9 39 -21 75 -16 53 -24 66 -37 62 -46 -12 -112 -16 -155 -7 -35 6 -49 5
-52 -3z"/>
<path d="M2350 1696 c0 -3 9 -10 20 -16 11 -6 20 -8 20 -6 0 3 -9 10 -20 16
-11 6 -20 8 -20 6z"/>
<path d="M1166 1595 c-3 -27 -17 -72 -31 -98 -14 -27 -25 -50 -25 -52 0 -6
110 -78 114 -74 5 5 86 262 86 272 0 4 -31 6 -69 5 l-69 -3 -6 -50z"/>
<path d="M1286 1498 c-41 -130 -46 -152 -33 -160 9 -4 67 -46 130 -93 63 -47
117 -85 121 -85 3 0 59 39 123 88 65 48 122 90 127 94 7 4 -8 63 -39 158 l-49
150 -166 0 -167 0 -47 -152z"/>
<path d="M1731 1509 c26 -77 49 -143 52 -145 2 -2 20 12 40 30 21 19 44 36 52
40 12 4 10 15 -11 61 -14 31 -29 77 -32 103 l-7 47 -71 3 -70 3 47 -142z"/>
<path d="M811 1504 c0 -11 3 -14 6 -6 3 7 2 16 -1 19 -3 4 -6 -2 -5 -13z"/>
<path d="M1052 1383 c-24 -23 -64 -51 -89 -63 -36 -17 -43 -24 -33 -35 6 -8 9
-18 6 -23 -3 -5 0 -25 6 -44 l11 -35 41 9 c22 6 71 7 109 4 60 -6 67 -4 67 12
0 10 4 22 9 28 4 5 15 30 24 56 l16 47 -37 29 c-80 62 -82 63 -130 15z"/>
<path d="M1890 1410 c0 -5 -15 -16 -32 -24 -69 -31 -72 -37 -52 -100 10 -31
21 -56 26 -56 4 0 8 -12 8 -26 0 -19 4 -24 18 -20 46 13 102 16 145 7 47 -8
49 -8 58 17 6 15 8 34 6 44 -3 9 1 23 9 29 12 9 5 16 -35 35 -28 12 -70 41
-94 63 -45 42 -57 48 -57 31z"/>
<path d="M1216 1280 c-8 -28 -13 -57 -10 -64 3 -8 1 -17 -5 -21 -19 -11 -12
-21 24 -34 19 -7 58 -34 87 -60 l53 -48 62 47 61 47 -76 55 c-43 30 -100 72
-129 92 l-52 37 -15 -51z"/>
<path d="M1647 1240 c-65 -49 -118 -91 -118 -95 0 -12 89 -74 96 -67 3 4 11
-1 17 -11 9 -16 14 -14 58 27 27 25 65 53 84 63 37 17 44 27 26 38 -6 4 -8 10
-5 14 5 9 -23 101 -34 112 -3 4 -59 -33 -124 -81z"/>
<path d="M993 1160 c-96 -20 -195 -96 -240 -188 -20 -42 -28 -74 -31 -136 -6
-112 20 -180 99 -258 85 -86 89 -82 64 59 -12 73 -12 94 1 175 8 51 17 101 20
112 4 11 40 34 91 58 l85 40 99 -42 c55 -23 99 -46 99 -51 0 -11 -13 -12 -25
-1 -6 5 -43 21 -84 36 -72 26 -75 26 -128 11 -70 -20 -65 -29 5 -10 50 13 56
12 130 -15 76 -28 102 -53 67 -66 -9 -4 -47 -1 -84 6 -54 10 -76 10 -104 1
-42 -14 -46 -30 -16 -57 20 -18 22 -18 85 5 52 18 67 21 79 11 8 -7 15 -16 15
-19 0 -4 -40 -40 -90 -79 l-90 -72 0 -74 c0 -40 3 -88 6 -106 7 -32 7 -32 53
-25 67 10 150 50 199 98 203 197 100 534 -180 587 -57 11 -66 11 -125 0z"/>
<path d="M1860 1151 c-92 -29 -172 -98 -217 -189 -24 -50 -28 -69 -28 -147 0
-100 20 -155 78 -222 157 -179 441 -153 558 51 42 74 39 86 -19 86 -42 0 -53
-5 -82 -35 -28 -29 -41 -35 -74 -35 -31 0 -37 3 -28 12 15 15 16 48 2 48 -5 0
-10 9 -10 20 0 11 -4 20 -10 20 -5 0 -7 -6 -4 -13 3 -8 -5 -19 -18 -25 -22
-11 -22 -11 3 -6 43 9 47 -16 9 -48 -26 -21 -45 -28 -77 -28 -36 0 -43 3 -43
20 0 14 11 22 41 30 57 16 45 20 -18 7 -40 -8 -55 -8 -67 2 -23 19 -20 39 7
44 12 2 -22 5 -76 6 -78 1 -99 4 -104 16 -3 9 -3 19 1 22 5 5 181 31 224 33
31 1 4 21 -88 65 -86 42 -100 52 -100 73 0 18 4 23 16 18 9 -3 58 -18 109 -33
l93 -27 12 -53 c8 -39 16 -53 29 -53 23 0 41 20 40 45 -1 17 -2 16 -8 -5 -12
-43 -38 -37 -51 12 -12 42 -12 42 29 80 22 21 49 38 59 38 10 0 38 -13 63 -29
34 -21 62 -30 108 -33 62 -4 62 -4 56 20 -18 72 -115 169 -201 202 -56 21
-163 26 -214 11z"/>
<path d="M1434 1083 l-62 -45 18 -32 c20 -35 35 -82 45 -139 5 -32 9 -37 26
-32 10 4 19 2 19 -3 0 -5 22 -10 49 -10 l48 -2 6 51 c4 28 18 75 32 106 29 65
29 63 10 63 -8 0 -15 4 -15 9 0 10 -95 81 -108 81 -4 -1 -35 -21 -68 -47z"/>
<path d="M2035 900 c-19 -8 -19 -9 3 -9 12 -1 22 4 22 9 0 6 -1 10 -2 9 -2 0
-12 -4 -23 -9z"/>
<path d="M2040 857 c0 -30 24 -63 52 -70 21 -6 20 -4 -5 16 -16 13 -28 33 -29
50 -3 33 -18 37 -18 4z"/>
<path d="M1903 753 c9 -2 25 -2 35 0 9 3 1 5 -18 5 -19 0 -27 -2 -17 -5z"/>
<path d="M1688 2743 c6 -2 18 -2 25 0 6 3 1 5 -13 5 -14 0 -19 -2 -12 -5z"/>
</g>
</svg>
